# xmcd
#
# Track frame offsets:
#	150
#	14214
#	30989
#	51718
#	79974
#	96726
#	107435
#	123332
#	128164
#	144712
#	163135
#	185637
#	203062
#	222554
#
# Disc length: 3220 seconds
#
# Revision: 1
# Processed by: cddbd v1.4PL0 Copyright (c) Steve Scherf et al.
# Submitted via: EasyCDDAExtractor 5.0.6
#
DISCID=db0c920e
DTITLE=G Love and Special Sauce - The Electric Mile
DYEAR=2001
DGENRE=Rap
TTITLE0=Unified
TTITLE1=Praise Up
TTITLE2=Night of the Living Dead
TTITLE3=Parasite
TTITLE4=Hopeless Case
TTITLE5=Free at Last
TTITLE6=Shy Girl
TTITLE7=Rain Jam
TTITLE8=Electric Mile
TTITLE9=Hammer
TTITLE10=Sarah's Song
TTITLE11=100 Magic Rings
TTITLE12=Poison
TTITLE13=Free at Last (Reprise)
EXTD=
EXTT0=
EXTT1=
EXTT2=
EXTT3=
EXTT4=
EXTT5=
EXTT6=
EXTT7=
EXTT8=
EXTT9=
EXTT10=
EXTT11=
EXTT12=
EXTT13=
PLAYORDER=
